# Blender 3.5.0
# www.blender.org
mtllib 90DegTurnThin.mtl
o Cube
v -3.049278 -0.062045 -2.547412
v -3.049278 0.062045 -2.547412
v -2.045545 -0.062045 -2.547412
v -2.045545 0.062045 -2.547412
v 0.000000 -0.062045 0.501867
v 0.000000 0.062045 0.501867
v 0.000000 -0.062045 -0.501867
v 0.000000 0.062045 -0.501867
v -0.097331 -0.062045 -0.504184
v -0.194441 -0.062045 -0.511129
v -0.291111 -0.062045 -0.522687
v -0.387122 -0.062045 -0.538832
v -0.482256 -0.062045 -0.559527
v -0.576297 -0.062045 -0.584726
v -0.669032 -0.062045 -0.614370
v -0.760252 -0.062045 -0.648393
v -0.849750 -0.062045 -0.686719
v -0.937323 -0.062045 -0.729259
v -1.022773 -0.062045 -0.775918
v -1.105905 -0.062045 -0.826590
v -1.186533 -0.062045 -0.881160
v -1.264472 -0.062045 -0.939505
v -1.339547 -0.062045 -1.001492
v -1.411588 -0.062045 -1.066981
v -1.480431 -0.062045 -1.135824
v -1.545920 -0.062045 -1.207865
v -1.607907 -0.062045 -1.282940
v -1.666252 -0.062045 -1.360879
v -1.720822 -0.062045 -1.441507
v -1.771494 -0.062045 -1.524639
v -1.818153 -0.062045 -1.610089
v -1.860693 -0.062045 -1.697662
v -1.899019 -0.062045 -1.787160
v -1.933042 -0.062045 -1.878380
v -1.962686 -0.062045 -1.971115
v -1.987884 -0.062045 -2.065156
v -2.008579 -0.062045 -2.160290
v -2.024724 -0.062045 -2.256300
v -2.036283 -0.062045 -2.352970
v -2.043228 -0.062045 -2.450081
v -2.043228 0.062045 -2.450081
v -2.036283 0.062045 -2.352970
v -2.024724 0.062045 -2.256300
v -2.008579 0.062045 -2.160289
v -1.987884 0.062045 -2.065156
v -1.962686 0.062045 -1.971114
v -1.933042 0.062045 -1.878379
v -1.899018 0.062045 -1.787159
v -1.860693 0.062045 -1.697661
v -1.818153 0.062045 -1.610088
v -1.771494 0.062045 -1.524639
v -1.720822 0.062045 -1.441506
v -1.666252 0.062045 -1.360879
v -1.607907 0.062045 -1.282939
v -1.545920 0.062045 -1.207864
v -1.480430 0.062045 -1.135823
v -1.411587 0.062045 -1.066981
v -1.339547 0.062045 -1.001492
v -1.264472 0.062045 -0.939504
v -1.186532 0.062045 -0.881160
v -1.105905 0.062045 -0.826590
v -1.022772 0.062045 -0.775918
v -0.937323 0.062045 -0.729259
v -0.849750 0.062045 -0.686718
v -0.760252 0.062045 -0.648393
v -0.669032 0.062045 -0.614370
v -0.576296 0.062045 -0.584726
v -0.482255 0.062045 -0.559527
v -0.387122 0.062045 -0.538832
v -0.291111 0.062045 -0.522687
v -0.194441 0.062045 -0.511129
v -0.097331 0.062045 -0.504184
v -3.045825 -0.062045 -2.402321
v -3.035471 -0.062045 -2.257559
v -3.018241 -0.062045 -2.113454
v -2.994174 -0.062045 -1.970331
v -2.963324 -0.062045 -1.828516
v -2.925761 -0.062045 -1.688330
v -2.881570 -0.062045 -1.550090
v -2.830852 -0.062045 -1.414109
v -2.773721 -0.062045 -1.280695
v -2.710306 -0.062045 -1.150151
v -2.640752 -0.062045 -1.022771
v -2.565216 -0.062045 -0.898846
v -2.483868 -0.062045 -0.778656
v -2.396894 -0.062045 -0.662472
v -2.304490 -0.062045 -0.550558
v -2.206866 -0.062045 -0.443168
v -2.104242 -0.062045 -0.340544
v -1.996852 -0.062045 -0.242920
v -1.884938 -0.062045 -0.150517
v -1.768754 -0.062045 -0.063542
v -1.648564 -0.062045 0.017805
v -1.524639 -0.062045 0.093341
v -1.397260 -0.062045 0.162895
v -1.266715 -0.062045 0.226310
v -1.133302 -0.062045 0.283441
v -0.997321 -0.062045 0.334159
v -0.859081 -0.062045 0.378350
v -0.718894 -0.062045 0.415912
v -0.577079 -0.062045 0.446762
v -0.433957 -0.062045 0.470829
v -0.289852 -0.062045 0.488059
v -0.145090 -0.062045 0.498413
v -0.145091 0.062045 0.498413
v -0.289852 0.062045 0.488059
v -0.433958 0.062045 0.470829
v -0.577080 0.062045 0.446762
v -0.718895 0.062045 0.415912
v -0.859081 0.062045 0.378350
v -0.997321 0.062045 0.334159
v -1.133302 0.062045 0.283441
v -1.266716 0.062045 0.226309
v -1.397260 0.062045 0.162895
v -1.524639 0.062045 0.093341
v -1.648564 0.062045 0.017805
v -1.768755 0.062045 -0.063543
v -1.884939 0.062045 -0.150517
v -1.996853 0.062045 -0.242921
v -2.104243 0.062045 -0.340545
v -2.206867 0.062045 -0.443169
v -2.304491 0.062045 -0.550559
v -2.396895 0.062045 -0.662473
v -2.483869 0.062045 -0.778657
v -2.565216 0.062045 -0.898848
v -2.640753 0.062045 -1.022773
v -2.710307 0.062045 -1.150152
v -2.773721 0.062045 -1.280696
v -2.830852 0.062045 -1.414110
v -2.881571 0.062045 -1.550091
v -2.925761 0.062045 -1.688331
v -2.963324 0.062045 -1.828517
v -2.994174 0.062045 -1.970332
v -3.018241 0.062045 -2.113454
v -3.035471 0.062045 -2.257559
v -3.045825 0.062045 -2.402321
vn -0.0000 -0.0000 -1.0000
vn 0.0238 -0.0000 -0.9997
vn 1.0000 -0.0000 -0.0000
vn -0.9997 -0.0000 0.0238
vn -0.0000 -1.0000 -0.0000
vn -0.0000 1.0000 -0.0000
vn -0.0238 -0.0000 0.9997
vn -0.0713 -0.0000 0.9975
vn -0.1187 -0.0000 0.9929
vn -0.1658 -0.0000 0.9862
vn -0.2126 -0.0000 0.9771
vn -0.2588 -0.0000 0.9659
vn -0.3045 -0.0000 0.9525
vn -0.3495 -0.0000 0.9369
vn -0.3936 -0.0000 0.9193
vn -0.4369 -0.0000 0.8995
vn -0.4792 -0.0000 0.8777
vn -0.5205 -0.0000 0.8539
vn -0.5605 -0.0000 0.8282
vn -0.5993 -0.0000 0.8005
vn -0.6367 -0.0000 0.7711
vn -0.6727 -0.0000 0.7400
vn -0.7071 -0.0000 0.7071
vn -0.7400 -0.0000 0.6727
vn -0.7711 -0.0000 0.6367
vn -0.8005 -0.0000 0.5993
vn -0.8281 -0.0000 0.5605
vn -0.8539 -0.0000 0.5205
vn -0.8777 -0.0000 0.4792
vn -0.8995 -0.0000 0.4369
vn -0.9193 -0.0000 0.3936
vn -0.9369 -0.0000 0.3495
vn -0.9525 -0.0000 0.3045
vn -0.9659 -0.0000 0.2588
vn -0.9771 -0.0000 0.2126
vn -0.9862 -0.0000 0.1658
vn -0.9929 -0.0000 0.1187
vn -0.9975 -0.0000 0.0713
vn 0.9997 -0.0000 -0.0238
vn 0.9975 -0.0000 -0.0713
vn 0.9929 -0.0000 -0.1187
vn 0.9862 -0.0000 -0.1658
vn 0.9771 -0.0000 -0.2126
vn 0.9659 -0.0000 -0.2588
vn 0.9525 -0.0000 -0.3045
vn 0.9369 -0.0000 -0.3495
vn 0.9193 -0.0000 -0.3937
vn 0.8995 -0.0000 -0.4369
vn 0.8777 -0.0000 -0.4792
vn 0.8539 -0.0000 -0.5205
vn 0.8281 -0.0000 -0.5605
vn 0.8005 -0.0000 -0.5993
vn 0.7711 -0.0000 -0.6367
vn 0.7400 -0.0000 -0.6727
vn 0.7071 -0.0000 -0.7071
vn 0.6727 -0.0000 -0.7400
vn 0.6367 -0.0000 -0.7711
vn 0.5993 -0.0000 -0.8005
vn 0.5605 -0.0000 -0.8281
vn 0.5205 -0.0000 -0.8539
vn 0.4792 -0.0000 -0.8777
vn 0.4369 -0.0000 -0.8995
vn 0.3937 -0.0000 -0.9193
vn 0.3495 -0.0000 -0.9369
vn 0.3045 -0.0000 -0.9525
vn 0.2588 -0.0000 -0.9659
vn 0.2126 -0.0000 -0.9771
vn 0.1658 -0.0000 -0.9862
vn 0.1187 -0.0000 -0.9929
vn 0.0713 -0.0000 -0.9975
vt 0.250044 0.000087
vt 0.362920 0.999913
vt 0.000087 0.749957
vt 0.500000 0.000087
vt 0.387123 0.999913
vt 0.750000 0.999892
vt 0.250043 0.250043
vt 0.000087 0.500000
vt 0.357855 0.250043
vt 0.500000 0.250043
vt 0.999957 0.999892
vt 0.392189 0.250043
vt 0.000043 0.030088
vt 0.250043 0.749957
vt 0.362920 0.749957
vt 0.250000 0.030088
vt 0.750000 0.000065
vt 0.387123 0.749957
vt 0.357855 0.500000
vt 0.000043 0.001119
vt 0.250043 0.500000
vt 0.392189 0.500000
vt 0.250000 0.001119
vt 0.999957 0.000065
vt 0.242469 0.500000
vt 0.357855 0.492426
vt 0.234895 0.500000
vt 0.357855 0.484851
vt 0.227320 0.500000
vt 0.357855 0.477277
vt 0.219746 0.500000
vt 0.357855 0.469702
vt 0.212171 0.500000
vt 0.357855 0.462128
vt 0.204597 0.500000
vt 0.357855 0.454553
vt 0.197022 0.500000
vt 0.357855 0.446979
vt 0.189448 0.500000
vt 0.357855 0.439404
vt 0.181873 0.500000
vt 0.357855 0.431830
vt 0.174299 0.500000
vt 0.357855 0.424255
vt 0.166724 0.500000
vt 0.357855 0.416681
vt 0.159150 0.500000
vt 0.357855 0.409107
vt 0.151576 0.500000
vt 0.357855 0.401532
vt 0.144001 0.500000
vt 0.357855 0.393958
vt 0.136427 0.500000
vt 0.357855 0.386383
vt 0.128852 0.500000
vt 0.357855 0.378809
vt 0.121278 0.500000
vt 0.357855 0.371234
vt 0.113703 0.500000
vt 0.357855 0.363660
vt 0.106129 0.500000
vt 0.357855 0.356086
vt 0.098554 0.500000
vt 0.357855 0.348511
vt 0.090980 0.500000
vt 0.357855 0.340937
vt 0.083406 0.500000
vt 0.357855 0.333362
vt 0.075831 0.500000
vt 0.357855 0.325788
vt 0.068257 0.500000
vt 0.357855 0.318213
vt 0.060682 0.500000
vt 0.357855 0.310639
vt 0.053108 0.500000
vt 0.357855 0.303064
vt 0.045533 0.500000
vt 0.357855 0.295490
vt 0.037959 0.500000
vt 0.357855 0.287916
vt 0.030384 0.500000
vt 0.357855 0.280341
vt 0.022810 0.500000
vt 0.357855 0.272767
vt 0.015236 0.500000
vt 0.357855 0.265192
vt 0.007661 0.500000
vt 0.357855 0.257618
vt 0.999957 0.969594
vt 0.392189 0.257618
vt 0.999957 0.939296
vt 0.392189 0.265192
vt 0.999957 0.908999
vt 0.392189 0.272767
vt 0.999957 0.878700
vt 0.392189 0.280341
vt 0.999957 0.848403
vt 0.392189 0.287916
vt 0.999957 0.818105
vt 0.392189 0.295490
vt 0.999957 0.787808
vt 0.392189 0.303064
vt 0.999957 0.757510
vt 0.392189 0.310639
vt 0.999957 0.727212
vt 0.392189 0.318213
vt 0.999957 0.696914
vt 0.392189 0.325788
vt 0.999957 0.666616
vt 0.392189 0.333362
vt 0.999957 0.636318
vt 0.392189 0.340937
vt 0.999957 0.606021
vt 0.392189 0.348511
vt 0.999957 0.575723
vt 0.392189 0.356086
vt 0.999957 0.545425
vt 0.392189 0.363660
vt 0.999957 0.515127
vt 0.392189 0.371234
vt 0.999957 0.484829
vt 0.392189 0.378809
vt 0.999957 0.454532
vt 0.392189 0.386383
vt 0.999957 0.424234
vt 0.392189 0.393958
vt 0.999957 0.393936
vt 0.392189 0.401532
vt 0.999957 0.363638
vt 0.392189 0.409107
vt 0.999957 0.333341
vt 0.392189 0.416681
vt 0.999957 0.303043
vt 0.392189 0.424256
vt 0.999957 0.272745
vt 0.392189 0.431830
vt 0.999957 0.242447
vt 0.392189 0.439404
vt 0.999957 0.212150
vt 0.392189 0.446979
vt 0.999957 0.181852
vt 0.392189 0.454553
vt 0.999957 0.151554
vt 0.392189 0.462128
vt 0.999957 0.121256
vt 0.392189 0.469702
vt 0.999957 0.090958
vt 0.392189 0.477277
vt 0.999957 0.060661
vt 0.392189 0.484851
vt 0.999957 0.030363
vt 0.392189 0.492426
vt 0.007661 0.749957
vt 0.362920 0.992339
vt 0.015236 0.749957
vt 0.362920 0.984765
vt 0.022810 0.749957
vt 0.362920 0.977190
vt 0.030384 0.749957
vt 0.362920 0.969616
vt 0.037959 0.749957
vt 0.362920 0.962041
vt 0.045533 0.749957
vt 0.362920 0.954467
vt 0.053108 0.749957
vt 0.362920 0.946892
vt 0.060682 0.749957
vt 0.362920 0.939318
vt 0.068257 0.749957
vt 0.362920 0.931743
vt 0.075831 0.749957
vt 0.362920 0.924169
vt 0.083405 0.749957
vt 0.362920 0.916595
vt 0.090980 0.749957
vt 0.362920 0.909020
vt 0.098554 0.749957
vt 0.362920 0.901446
vt 0.106129 0.749957
vt 0.362920 0.893871
vt 0.113703 0.749957
vt 0.362920 0.886297
vt 0.121278 0.749957
vt 0.362920 0.878722
vt 0.128852 0.749957
vt 0.362920 0.871148
vt 0.136427 0.749957
vt 0.362920 0.863573
vt 0.144001 0.749957
vt 0.362920 0.855999
vt 0.151576 0.749957
vt 0.362920 0.848425
vt 0.159150 0.749957
vt 0.362920 0.840850
vt 0.166724 0.749957
vt 0.362920 0.833276
vt 0.174299 0.749957
vt 0.362920 0.825701
vt 0.181873 0.749957
vt 0.362920 0.818127
vt 0.189448 0.749957
vt 0.362920 0.810552
vt 0.197022 0.749957
vt 0.362920 0.802978
vt 0.204597 0.749957
vt 0.362920 0.795403
vt 0.212171 0.749957
vt 0.362920 0.787829
vt 0.219746 0.749957
vt 0.362920 0.780255
vt 0.227320 0.749957
vt 0.362920 0.772680
vt 0.234894 0.749957
vt 0.362920 0.765106
vt 0.242469 0.749957
vt 0.362920 0.757531
vt 0.750000 0.030363
vt 0.387123 0.757531
vt 0.750000 0.060660
vt 0.387123 0.765106
vt 0.750000 0.090958
vt 0.387123 0.772680
vt 0.750000 0.121256
vt 0.387123 0.780255
vt 0.750000 0.151554
vt 0.387123 0.787829
vt 0.750000 0.181852
vt 0.387123 0.795403
vt 0.750000 0.212149
vt 0.387123 0.802978
vt 0.750000 0.242447
vt 0.387123 0.810552
vt 0.750000 0.272745
vt 0.387123 0.818127
vt 0.750000 0.303043
vt 0.387123 0.825701
vt 0.750000 0.333340
vt 0.387123 0.833276
vt 0.750000 0.363638
vt 0.387123 0.840850
vt 0.750000 0.393936
vt 0.387123 0.848424
vt 0.750000 0.424234
vt 0.387123 0.855999
vt 0.750000 0.454532
vt 0.387123 0.863573
vt 0.750000 0.484829
vt 0.387123 0.871148
vt 0.750000 0.515127
vt 0.387123 0.878722
vt 0.750000 0.545425
vt 0.387123 0.886297
vt 0.750000 0.575723
vt 0.387123 0.893871
vt 0.750000 0.606021
vt 0.387123 0.901446
vt 0.750000 0.636319
vt 0.387123 0.909020
vt 0.750000 0.666617
vt 0.387123 0.916594
vt 0.750000 0.696914
vt 0.387123 0.924169
vt 0.750000 0.727212
vt 0.387123 0.931743
vt 0.750000 0.757509
vt 0.387123 0.939318
vt 0.750000 0.787807
vt 0.387123 0.946892
vt 0.750000 0.818105
vt 0.387123 0.954467
vt 0.750000 0.848403
vt 0.387123 0.962041
vt 0.750000 0.878700
vt 0.387123 0.969616
vt 0.750000 0.908998
vt 0.387123 0.977190
vt 0.750000 0.939296
vt 0.387123 0.984765
vt 0.750000 0.969594
vt 0.387123 0.992339
s 0
f 1/1/1 2/4/1 4/10/1 3/7/1
f 9/26/2 72/152/2 8/22/2 7/19/2
f 7/20/3 8/23/3 6/16/3 5/13/3
f 73/154/4 136/280/4 2/5/4 1/2/4
f 9/25/5 7/21/5 5/14/5 104/215/5
f 41/89/6 4/11/6 2/6/6 136/279/6
f 8/24/6 72/151/6 105/217/6 6/17/6
f 72/151/6 71/149/6 106/219/6 105/217/6
f 71/149/6 70/147/6 107/221/6 106/219/6
f 70/147/6 69/145/6 108/223/6 107/221/6
f 69/145/6 68/143/6 109/225/6 108/223/6
f 68/143/6 67/141/6 110/227/6 109/225/6
f 67/141/6 66/139/6 111/229/6 110/227/6
f 66/139/6 65/137/6 112/231/6 111/229/6
f 65/137/6 64/135/6 113/233/6 112/231/6
f 64/135/6 63/133/6 114/235/6 113/233/6
f 63/133/6 62/131/6 115/237/6 114/235/6
f 62/131/6 61/129/6 116/239/6 115/237/6
f 61/129/6 60/127/6 117/241/6 116/239/6
f 60/127/6 59/125/6 118/243/6 117/241/6
f 59/125/6 58/123/6 119/245/6 118/243/6
f 58/123/6 57/121/6 120/247/6 119/245/6
f 57/121/6 56/119/6 121/249/6 120/247/6
f 56/119/6 55/117/6 122/251/6 121/249/6
f 55/117/6 54/115/6 123/253/6 122/251/6
f 54/115/6 53/113/6 124/255/6 123/253/6
f 53/113/6 52/111/6 125/257/6 124/255/6
f 52/111/6 51/109/6 126/259/6 125/257/6
f 51/109/6 50/107/6 127/261/6 126/259/6
f 50/107/6 49/105/6 128/263/6 127/261/6
f 49/105/6 48/103/6 129/265/6 128/263/6
f 48/103/6 47/101/6 130/267/6 129/265/6
f 47/101/6 46/99/6 131/269/6 130/267/6
f 46/99/6 45/97/6 132/271/6 131/269/6
f 45/97/6 44/95/6 133/273/6 132/271/6
f 44/95/6 43/93/6 134/275/6 133/273/6
f 43/93/6 42/91/6 135/277/6 134/275/6
f 42/91/6 41/89/6 136/279/6 135/277/6
f 3/8/5 40/87/5 73/153/5 1/3/5
f 40/87/5 39/85/5 74/155/5 73/153/5
f 39/85/5 38/83/5 75/157/5 74/155/5
f 38/83/5 37/81/5 76/159/5 75/157/5
f 37/81/5 36/79/5 77/161/5 76/159/5
f 36/79/5 35/77/5 78/163/5 77/161/5
f 35/77/5 34/75/5 79/165/5 78/163/5
f 34/75/5 33/73/5 80/167/5 79/165/5
f 33/73/5 32/71/5 81/169/5 80/167/5
f 32/71/5 31/69/5 82/171/5 81/169/5
f 31/69/5 30/67/5 83/173/5 82/171/5
f 30/67/5 29/65/5 84/175/5 83/173/5
f 29/65/5 28/63/5 85/177/5 84/175/5
f 28/63/5 27/61/5 86/179/5 85/177/5
f 27/61/5 26/59/5 87/181/5 86/179/5
f 26/59/5 25/57/5 88/183/5 87/181/5
f 25/57/5 24/55/5 89/185/5 88/183/5
f 24/55/5 23/53/5 90/187/5 89/185/5
f 23/53/5 22/51/5 91/189/5 90/187/5
f 22/51/5 21/49/5 92/191/5 91/189/5
f 21/49/5 20/47/5 93/193/5 92/191/5
f 20/47/5 19/45/5 94/195/5 93/193/5
f 19/45/5 18/43/5 95/197/5 94/195/5
f 18/43/5 17/41/5 96/199/5 95/197/5
f 17/41/5 16/39/5 97/201/5 96/199/5
f 16/39/5 15/37/5 98/203/5 97/201/5
f 15/37/5 14/35/5 99/205/5 98/203/5
f 14/35/5 13/33/5 100/207/5 99/205/5
f 13/33/5 12/31/5 101/209/5 100/207/5
f 12/31/5 11/29/5 102/211/5 101/209/5
f 11/29/5 10/27/5 103/213/5 102/211/5
f 10/27/5 9/25/5 104/215/5 103/213/5
f 5/15/7 6/18/7 105/218/7 104/216/7
f 104/216/8 105/218/8 106/220/8 103/214/8
f 103/214/9 106/220/9 107/222/9 102/212/9
f 102/212/10 107/222/10 108/224/10 101/210/10
f 101/210/11 108/224/11 109/226/11 100/208/11
f 100/208/12 109/226/12 110/228/12 99/206/12
f 99/206/13 110/228/13 111/230/13 98/204/13
f 98/204/14 111/230/14 112/232/14 97/202/14
f 97/202/15 112/232/15 113/234/15 96/200/15
f 96/200/16 113/234/16 114/236/16 95/198/16
f 95/198/17 114/236/17 115/238/17 94/196/17
f 94/196/18 115/238/18 116/240/18 93/194/18
f 93/194/19 116/240/19 117/242/19 92/192/19
f 92/192/20 117/242/20 118/244/20 91/190/20
f 91/190/21 118/244/21 119/246/21 90/188/21
f 90/188/22 119/246/22 120/248/22 89/186/22
f 89/186/23 120/248/23 121/250/23 88/184/23
f 88/184/24 121/250/24 122/252/24 87/182/24
f 87/182/25 122/252/25 123/254/25 86/180/25
f 86/180/26 123/254/26 124/256/26 85/178/26
f 85/178/27 124/256/27 125/258/27 84/176/27
f 84/176/28 125/258/28 126/260/28 83/174/28
f 83/174/29 126/260/29 127/262/29 82/172/29
f 82/172/30 127/262/30 128/264/30 81/170/30
f 81/170/31 128/264/31 129/266/31 80/168/31
f 80/168/32 129/266/32 130/268/32 79/166/32
f 79/166/33 130/268/33 131/270/33 78/164/33
f 78/164/34 131/270/34 132/272/34 77/162/34
f 77/162/35 132/272/35 133/274/35 76/160/35
f 76/160/36 133/274/36 134/276/36 75/158/36
f 75/158/37 134/276/37 135/278/37 74/156/37
f 74/156/38 135/278/38 136/280/38 73/154/38
f 3/9/39 4/12/39 41/90/39 40/88/39
f 40/88/40 41/90/40 42/92/40 39/86/40
f 39/86/41 42/92/41 43/94/41 38/84/41
f 38/84/42 43/94/42 44/96/42 37/82/42
f 37/82/43 44/96/43 45/98/43 36/80/43
f 36/80/44 45/98/44 46/100/44 35/78/44
f 35/78/45 46/100/45 47/102/45 34/76/45
f 34/76/46 47/102/46 48/104/46 33/74/46
f 33/74/47 48/104/47 49/106/47 32/72/47
f 32/72/48 49/106/48 50/108/48 31/70/48
f 31/70/49 50/108/49 51/110/49 30/68/49
f 30/68/50 51/110/50 52/112/50 29/66/50
f 29/66/51 52/112/51 53/114/51 28/64/51
f 28/64/52 53/114/52 54/116/52 27/62/52
f 27/62/53 54/116/53 55/118/53 26/60/53
f 26/60/54 55/118/54 56/120/54 25/58/54
f 25/58/55 56/120/55 57/122/55 24/56/55
f 24/56/56 57/122/56 58/124/56 23/54/56
f 23/54/57 58/124/57 59/126/57 22/52/57
f 22/52/58 59/126/58 60/128/58 21/50/58
f 21/50/59 60/128/59 61/130/59 20/48/59
f 20/48/60 61/130/60 62/132/60 19/46/60
f 19/46/61 62/132/61 63/134/61 18/44/61
f 18/44/62 63/134/62 64/136/62 17/42/62
f 17/42/63 64/136/63 65/138/63 16/40/63
f 16/40/64 65/138/64 66/140/64 15/38/64
f 15/38/65 66/140/65 67/142/65 14/36/65
f 14/36/66 67/142/66 68/144/66 13/34/66
f 13/34/67 68/144/67 69/146/67 12/32/67
f 12/32/68 69/146/68 70/148/68 11/30/68
f 11/30/69 70/148/69 71/150/69 10/28/69
f 10/28/70 71/150/70 72/152/70 9/26/70
